<?xml version="1.0" standalone="no"?>
<!DOCTYPE svg PUBLIC "-//W3C//DTD SVG 20010904//EN"
 "http://www.w3.org/TR/2001/REC-SVG-20010904/DTD/svg10.dtd">
<svg version="1.0" xmlns="http://www.w3.org/2000/svg"
 width="409.000000pt" height="127.000000pt" viewBox="0 0 409.000000 127.000000"
 preserveAspectRatio="xMidYMid meet">

<g transform="translate(0.000000,127.000000) scale(0.100000,-0.100000)"
fill="#000000" stroke="none">
<path d="M2121 1218 c-16 -38 -105 -181 -114 -181 -4 0 -51 13 -103 28 -84 25
-96 27 -110 13 -11 -11 -12 -21 -5 -40 5 -14 11 -54 12 -89 2 -51 0 -65 -13
-67 -8 -2 -25 -21 -37 -43 -25 -43 -44 -46 -21 -3 12 21 12 27 0 34 -7 4 -20
6 -28 3 -10 -5 -13 -1 -8 14 4 11 -1 27 -11 39 -21 23 -40 55 -108 184 -59
112 -76 121 -123 64 -44 -53 -76 -118 -69 -137 9 -25 26 -21 39 11 21 47 69
113 79 106 5 -3 30 -46 54 -95 l45 -89 -355 0 -355 0 44 88 c24 48 51 95 58
106 14 17 15 17 31 -8 19 -29 47 -35 47 -10 0 28 -40 84 -61 84 -10 0 -19 -6
-19 -14 0 -7 -8 -16 -18 -18 -9 -3 -42 -53 -75 -117 -50 -95 -62 -111 -83
-111 -19 0 -24 -5 -24 -24 0 -13 6 -26 13 -29 9 -3 9 -11 -3 -35 l-15 -32 -43
21 c-24 12 -63 42 -88 66 -41 42 -74 52 -74 23 0 -20 88 -99 139 -125 46 -23
50 -28 40 -46 -6 -12 -17 -18 -26 -15 -8 3 -20 6 -27 6 -7 0 -38 16 -70 35
-58 35 -76 37 -76 9 0 -18 83 -71 132 -85 30 -8 37 -14 35 -31 -3 -32 30 -36
42 -5 5 13 19 27 31 30 19 5 20 8 10 27 -11 20 -7 34 8 35 19 2 52 17 52 25 0
4 -7 10 -15 14 -21 8 -21 76 0 76 10 0 15 -10 15 -34 0 -21 6 -36 15 -40 19
-7 19 -26 0 -26 -8 0 -15 -7 -15 -15 0 -12 17 -15 90 -15 73 0 90 3 90 15 0 8
7 15 15 15 8 0 15 7 15 15 0 8 5 15 10 15 6 0 10 15 10 33 0 20 8 39 20 50 22
19 50 23 50 7 0 -14 27 -12 34 3 5 10 7 10 12 0 3 -7 12 -13 20 -13 10 0 14
-12 14 -39 0 -25 5 -41 15 -45 17 -6 21 -26 5 -26 -23 0 -50 36 -50 67 0 18
-4 33 -10 33 -21 0 -10 -63 15 -86 14 -13 25 -28 25 -34 0 -6 34 -10 90 -10
73 0 90 3 90 15 0 8 7 15 15 15 8 0 15 7 15 15 0 8 7 15 15 15 11 0 15 11 15
36 0 49 19 64 78 64 49 0 49 0 70 -47 14 -33 17 -52 11 -60 -16 -19 -99 -43
-150 -43 -53 0 -79 -19 -54 -40 22 -18 117 -5 181 24 l52 24 10 -24 c9 -18 7
-28 -8 -46 -16 -21 -28 -23 -114 -26 -85 -4 -96 -6 -96 -22 0 -24 44 -33 115
-25 l56 7 -97 -158 c-53 -88 -112 -183 -130 -212 -19 -29 -34 -56 -34 -61 0
-4 -15 -12 -32 -17 -29 -9 -33 -14 -34 -44 0 -19 -11 -54 -25 -77 l-24 -43
-96 0 c-101 0 -409 26 -418 36 -3 3 2 10 12 15 19 11 23 49 5 49 -7 0 -37 -17
-68 -39 -30 -21 -65 -42 -77 -45 -20 -6 -23 -4 -23 21 0 15 11 52 25 82 14 30
23 62 20 72 -7 20 21 145 66 297 24 80 28 107 19 115 -9 9 -14 8 -24 -5 -9
-13 -42 -19 -146 -28 -153 -12 -381 -55 -392 -73 -18 -29 16 -30 144 -4 73 15
185 30 250 33 l116 7 -28 -104 c-15 -57 -31 -116 -34 -132 -8 -33 -2 -33 -202
-7 -257 33 -384 74 -346 112 7 7 12 20 12 31 0 27 -31 18 -50 -16 -13 -24 -13
-30 0 -54 8 -16 35 -38 60 -50 49 -24 217 -56 397 -75 l114 -12 -7 -31 c-9
-42 -8 -41 -71 -70 -52 -24 -58 -24 -72 -9 -15 14 -14 17 6 31 13 9 23 21 23
29 0 24 -20 25 -50 4 -62 -44 -26 -108 80 -143 32 -11 46 -21 48 -36 6 -37 37
-44 89 -21 25 11 53 18 62 16 9 -3 81 -12 161 -20 322 -33 874 -33 887 1 3 8
2 18 -3 22 -5 5 -72 5 -148 0 l-139 -8 -39 31 c-42 33 -75 85 -61 99 5 5 35
10 68 12 35 2 60 8 63 16 2 7 14 16 27 21 14 5 67 76 142 189 65 100 121 181
124 181 9 0 104 -176 134 -250 28 -67 76 -242 69 -249 -2 -2 -37 -9 -76 -15
-53 -8 -73 -15 -73 -26 0 -23 60 -23 175 0 161 33 263 95 245 150 -8 25 -50
54 -65 45 -15 -9 -12 -35 5 -41 23 -9 18 -30 -11 -49 -23 -15 -28 -15 -42 -2
-10 8 -27 18 -39 21 -13 4 -23 11 -23 16 0 24 15 40 35 40 32 0 40 17 16 32
-19 12 -19 12 -1 49 11 20 43 57 71 82 48 42 57 67 23 67 -24 0 -105 -81 -138
-140 -17 -30 -38 -79 -47 -110 -9 -30 -19 -48 -22 -40 -3 8 -18 57 -35 108
l-30 93 24 47 c45 90 169 192 233 192 32 0 79 -27 86 -49 3 -11 -1 -36 -9 -56
-27 -63 10 -80 39 -19 19 40 15 94 -7 121 -19 23 -72 43 -113 43 -73 0 -189
-84 -250 -180 l-26 -42 -50 86 c-27 48 -54 95 -60 104 -9 15 -2 32 40 96 28
43 51 85 51 92 0 8 3 13 8 12 13 -4 165 63 205 90 68 46 105 136 91 222 -14
83 -82 142 -103 88z m-1281 -288 c0 -5 -4 -10 -10 -10 -5 0 -10 5 -10 10 0 6
5 10 10 10 6 0 10 -4 10 -10z"/>
<path d="M1908 1220 c-52 -15 -89 -50 -86 -78 2 -21 12 -29 53 -44 42 -15 51
-16 65 -3 26 24 63 102 57 119 -7 17 -43 20 -89 6z"/>
<path d="M2960 1013 c-49 -25 -63 -62 -68 -181 -6 -122 12 -183 58 -207 36
-19 54 -19 90 0 44 23 62 67 68 165 10 178 -52 271 -148 223z m64 -95 c16 -23
22 -148 10 -195 -9 -33 -36 -38 -57 -11 -16 19 -18 36 -15 109 4 110 28 146
62 97z"/>
<path d="M3202 1018 c-9 -9 -12 -71 -12 -215 0 -179 2 -204 16 -210 9 -3 24
-2 33 4 14 9 16 39 19 206 2 168 0 197 -14 211 -19 19 -26 20 -42 4z"/>
<path d="M3661 1011 c-18 -18 -21 -33 -21 -114 0 -100 12 -132 46 -125 17 3
19 14 22 119 2 92 0 119 -12 128 -12 10 -19 8 -35 -8z"/>
<path d="M2461 1001 c-21 -21 -22 -29 -19 -186 4 -203 2 -199 121 -200 121 0
117 -7 117 194 0 125 -3 172 -14 186 -11 15 -30 19 -98 23 -78 4 -88 2 -107
-17z m139 -186 l0 -125 -40 0 -40 0 0 125 0 125 40 0 40 0 0 -125z"/>
<path d="M2736 1004 c-3 -9 -6 -98 -6 -198 0 -193 6 -222 46 -214 17 3 20 14
24 98 5 92 6 95 30 98 35 5 44 16 36 46 -4 18 -14 26 -34 28 -25 3 -27 6 -30
58 -4 85 -9 100 -36 100 -13 0 -27 -7 -30 -16z"/>
<path d="M3572 1008 c-7 -7 -12 -26 -12 -43 0 -22 -6 -33 -22 -40 -29 -13 -30
-47 -1 -60 15 -6 23 -20 25 -44 4 -44 33 -64 54 -37 17 24 20 186 4 217 -12
22 -30 25 -48 7z"/>
<path d="M3328 999 c-24 -13 -23 -36 2 -51 31 -20 28 -81 -5 -96 -14 -6 -25
-19 -25 -27 0 -23 42 -35 120 -35 106 0 153 29 100 62 -14 9 -20 24 -20 50 0
28 5 38 20 43 26 8 26 41 1 55 -25 13 -171 13 -193 -1z m112 -99 c0 -29 -4
-40 -15 -40 -11 0 -15 11 -15 40 0 29 4 40 15 40 11 0 15 -11 15 -40z"/>
<path d="M3771 834 c-12 -15 -21 -38 -21 -51 0 -34 42 -73 80 -73 38 0 80 39
80 75 0 67 -98 101 -139 49z m90 -30 c17 -21 0 -49 -31 -49 -31 0 -48 28 -31
49 8 9 21 16 31 16 10 0 23 -7 31 -16z"/>
<path d="M3940 735 c0 -115 2 -126 18 -123 15 3 17 17 17 123 0 106 -2 120
-17 123 -16 3 -18 -8 -18 -123z"/>
<path d="M1190 789 c0 -6 5 -19 10 -29 14 -26 -2 -33 -36 -18 -22 10 -28 10
-32 0 -2 -6 -12 -12 -23 -12 -15 0 -18 5 -13 33 l5 32 -21 -24 c-37 -43 -6
-85 48 -65 19 7 35 7 50 1 19 -9 27 -6 44 11 19 19 20 24 8 46 -14 26 -40 43
-40 25z"/>
<path d="M3460 710 c-93 -66 -108 -83 -89 -106 18 -22 54 -10 117 37 l53 40
60 -40 c33 -22 69 -43 80 -46 25 -8 52 15 44 36 -5 11 -118 99 -170 131 -6 4
-49 -20 -95 -52z"/>
<path d="M3746 672 c-13 -21 24 -33 96 -30 57 2 73 6 73 18 0 12 -17 16 -82
18 -45 1 -84 -1 -87 -6z"/>
<path d="M3747 566 c-15 -16 -36 -26 -62 -28 -45 -3 -58 -27 -31 -54 9 -8 16
-26 16 -39 0 -15 12 -33 33 -49 l32 -26 -31 0 c-41 0 -72 -33 -54 -55 11 -13
34 -15 133 -13 103 3 121 6 131 21 17 27 -18 50 -66 44 -46 -6 -48 3 -6 24 20
9 35 27 41 45 4 16 13 39 19 51 18 37 4 53 -47 53 -33 0 -45 4 -45 15 0 8 -9
19 -20 25 -17 9 -24 6 -43 -14z m66 -100 c8 -20 -1 -26 -39 -26 -34 0 -50 12
-39 30 9 15 72 12 78 -4z"/>
<path d="M2433 536 c-41 -19 -59 -55 -68 -138 -18 -168 19 -263 104 -263 78 0
110 60 111 203 0 162 -56 238 -147 198z m77 -206 c0 -67 -4 -92 -16 -104 -20
-20 -28 -20 -45 1 -10 11 -14 45 -14 110 0 83 2 96 20 109 18 13 22 13 38 -7
13 -17 17 -40 17 -109z"/>
<path d="M2672 538 c-13 -13 -18 -381 -6 -412 8 -21 50 -21 58 0 3 9 6 102 6
208 0 190 -4 216 -35 216 -6 0 -16 -5 -23 -12z"/>
<path d="M2832 538 c-31 -31 -7 -48 65 -48 54 0 51 -5 -25 -45 -40 -21 -57
-36 -57 -50 0 -31 39 -30 107 0 l60 27 54 -26 c55 -27 108 -34 119 -15 10 16
-19 43 -75 69 -28 13 -50 27 -50 31 0 4 26 9 58 11 53 3 57 5 57 28 l0 25
-150 3 c-109 2 -154 -1 -163 -10z"/>
<path d="M3457 534 c-4 -4 -7 -44 -7 -89 0 -45 -3 -85 -7 -88 -8 -9 -72 90
-79 123 -10 47 -14 51 -36 48 -16 -2 -24 -12 -29 -37 -4 -18 -21 -52 -38 -75
-48 -63 -56 -83 -41 -101 19 -22 27 -19 70 28 l40 42 33 -39 c28 -33 38 -38
59 -33 19 5 28 2 32 -9 4 -9 15 -14 28 -12 19 2 24 10 26 41 3 40 22 52 22 14
0 -32 23 -60 46 -55 17 3 19 13 19 123 l0 120 -25 0 c-22 0 -26 -5 -30 -44 -7
-62 -28 -65 -32 -4 -2 39 -7 49 -23 51 -12 2 -24 0 -28 -4z"/>
<path d="M3955 518 c-3 -13 -5 -66 -3 -118 l3 -95 30 0 c25 0 31 5 35 30 4 21
12 31 30 35 39 9 40 48 1 63 -26 9 -31 17 -31 43 0 48 -9 64 -36 64 -16 0 -25
-7 -29 -22z"/>
<path d="M2796 347 c-10 -7 -17 -22 -14 -33 3 -16 14 -20 83 -24 62 -4 80 -8
80 -20 0 -10 -15 -17 -48 -22 -58 -8 -87 -31 -87 -69 0 -44 37 -62 135 -67
148 -8 215 14 215 71 0 34 -32 59 -85 64 -29 4 -45 10 -45 19 0 16 26 23 100
26 48 3 55 6 58 25 5 36 -32 43 -212 43 -118 0 -167 -4 -180 -13z m262 -153
c49 -14 17 -24 -73 -24 -85 0 -118 9 -82 23 17 8 128 8 155 1z"/>
<path d="M3683 280 c-13 -5 -23 -13 -23 -18 0 -26 31 -32 160 -34 l135 -2
-135 -5 c-74 -4 -141 -10 -147 -14 -17 -11 -17 -58 0 -80 11 -16 31 -17 182
-15 162 3 170 4 170 23 0 19 -8 20 -140 25 l-140 5 133 5 c143 5 152 9 152 62
0 49 -28 58 -185 57 -77 0 -150 -4 -162 -9z"/>
<path d="M3314 269 c-69 -20 -86 -92 -31 -133 25 -18 42 -21 141 -21 91 0 117
3 139 18 59 39 52 105 -14 131 -43 18 -182 21 -235 5z m202 -63 c18 -14 18
-15 -9 -25 -51 -20 -166 -9 -174 16 -5 15 19 20 98 22 42 1 72 -4 85 -13z"/>
</g>
</svg>
